<svg id="Layer_1" data-name="Layer 1" xmlns="http://www.w3.org/2000/svg" viewBox="0 0 256.87 88.76"><defs><style>.cls-1{fill:#00abc8;}</style></defs><path class="cls-1" d="M54.15,60.11H75.32a18.11,18.11,0,0,0-4.95-15.33,17.11,17.11,0,0,0-12.52-5.13A17.8,17.8,0,0,0,58,75.25a16.65,16.65,0,0,0,9.59-2.93,18.36,18.36,0,0,0,5.63-6.13H64.28A9,9,0,0,1,58,68.41a9.84,9.84,0,0,1-8.38-4.25,12,12,0,0,1-.54-12.49,8.84,8.84,0,0,1,2.44-3.1l.15-.15v0a9.92,9.92,0,0,1,6.21-2c5.86-.07,9.22,4.39,9.53,7.57H54.15Z" transform="translate(-13.3 -13.3)"/><path class="cls-1" d="M81.75,56.79c0,.3,0,.6,0,.89A23.94,23.94,0,1,1,57.83,33.75V26.62A31.07,31.07,0,1,0,88.9,57.68c0-.29,0-.59,0-.89Z" transform="translate(-13.3 -13.3)"/><path class="cls-1" d="M57.67,13.3A44.42,44.42,0,0,0,13.3,56.79h7.08a37.3,37.3,0,1,1,20.13,34v7.8A44.38,44.38,0,1,0,57.67,13.3" transform="translate(-13.3 -13.3)"/><rect class="cls-1" x="99.91" y="40.71" width="18.11" height="5.99"/><path class="cls-1" d="M160.05,45.89a10.65,10.65,0,0,1,5.22,1.28,8.84,8.84,0,0,1,3.57,3.55l5.75-3.33a15.71,15.71,0,0,0-6.06-5.82,17.27,17.27,0,0,0-8.48-2.15,16.92,16.92,0,0,0-12.6,5,17.12,17.12,0,0,0-5,12.53,17.16,17.16,0,0,0,5,12.51,16.9,16.9,0,0,0,12.6,5.07,17.21,17.21,0,0,0,8.5-2.15,15.73,15.73,0,0,0,6-5.82l-5.75-3.33a8.56,8.56,0,0,1-3.55,3.5,10.76,10.76,0,0,1-5.24,1.28A10.6,10.6,0,0,1,152.11,65a10.94,10.94,0,0,1-3-8,11,11,0,0,1,3-8A10.6,10.6,0,0,1,160.05,45.89Z" transform="translate(-13.3 -13.3)"/><path class="cls-1" d="M187.34,40.1,175.51,73.9h7.2l2-6.08h13.88l2.15,6.08h6.76L195.6,40.1Zm-.43,21.49,4.63-13.82,4.88,13.82Z" transform="translate(-13.3 -13.3)"/><path class="cls-1" d="M233.8,57.12a10.31,10.31,0,0,0,1.79-5.82,11.22,11.22,0,0,0-11.25-11.2H210.81V73.9h6.67V62.17h5.05l6.83,11.73h7.2l-7.49-12.75A11.16,11.16,0,0,0,233.8,57.12Zm-6.23-2.27a4.24,4.24,0,0,1-3.23,1.47h-6.86v-10h6.86a4.28,4.28,0,0,1,3.23,1.44,5.32,5.32,0,0,1,0,7.08Z" transform="translate(-13.3 -13.3)"/><path class="cls-1" d="M265.51,45a15.42,15.42,0,0,0-11.62-4.87H240.47V73.9h13.42A15.39,15.39,0,0,0,265.51,69a16.76,16.76,0,0,0,4.66-12A16.79,16.79,0,0,0,265.51,45ZM261,64.61a9.41,9.41,0,0,1-7.15,2.92h-6.76V46.47h6.76A9.41,9.41,0,0,1,261,49.39,10.64,10.64,0,0,1,263.79,57,10.64,10.64,0,0,1,261,64.61Z" transform="translate(-13.3 -13.3)"/></svg>