<?xml version="1.0" encoding="utf-8"?>
<!-- Generator: Adobe Illustrator 26.0.2, SVG Export Plug-In . SVG Version: 6.00 Build 0)  -->
<svg version="1.1" id="Layer_1" xmlns="http://www.w3.org/2000/svg" xmlns:xlink="http://www.w3.org/1999/xlink" x="0px" y="0px"
	 viewBox="0 0 1400 400" style="enable-background:new 0 0 1400 400;" xml:space="preserve">
<style type="text/css">
	.st0{fill:#424242;}
	.st1{fill:#FF4438;}
	.st2{fill:none;}
</style>
<g>
	<g>
		<path class="st0" d="M694.42,285.69c5.94,0,11.01,2.16,15.2,6.5c4.18,4.33,6.28,9.61,6.28,15.84c0,6.23-2.1,11.5-6.28,15.84
			c-4.19,4.33-9.25,6.49-15.2,6.49c-7.02,0-12.37-2.8-16.05-8.41v7.31h-7.39v-59.44h7.39v24.29
			C682.05,288.49,687.4,285.69,694.42,285.69 M693.48,323.22c4.24,0,7.81-1.46,10.7-4.37c2.89-2.91,4.33-6.52,4.33-10.83
			c0-4.3-1.44-7.91-4.33-10.83c-2.89-2.91-6.45-4.37-10.7-4.37c-4.3,0-7.9,1.46-10.78,4.37c-2.89,2.92-4.33,6.52-4.33,10.83
			c0,4.31,1.44,7.91,4.33,10.83C685.59,321.76,689.18,323.22,693.48,323.22"/>
		<path class="st0" d="M752.66,286.79h7.9l-17.32,45.09c-1.81,4.81-4.35,8.48-7.6,11c-3.25,2.52-7,3.63-11.25,3.35v-6.88
			c5.18,0.39,8.99-2.5,11.41-8.68l0.81-1.6l-18.5-42.29h7.89l14.16,32.55L752.66,286.79z"/>
		<path class="st0" d="M793.15,311.42c0.73,3.79,2.48,6.74,5.22,8.83c2.75,2.09,6.12,3.14,10.15,3.14c5.6,0,9.68-2.06,12.22-6.2
			l6.28,3.57c-4.13,6.4-10.36,9.59-18.68,9.59c-6.74,0-12.21-2.11-16.43-6.32c-4.22-4.22-6.32-9.55-6.32-16.01
			c0-6.4,2.06-11.72,6.2-15.96c4.13-4.25,9.48-6.37,16.05-6.37c6.23,0,11.3,2.19,15.24,6.58c3.93,4.39,5.9,9.66,5.9,15.83
			c0,1.08-0.09,2.18-0.25,3.31H793.15z M807.84,292.65c-3.96,0-7.24,1.12-9.85,3.35c-2.6,2.24-4.21,5.22-4.84,8.96h28.36
			c-0.62-4.02-2.21-7.07-4.76-9.17C814.2,293.7,811.23,292.65,807.84,292.65"/>
		<path class="st0" d="M883.31,285.69c4.75,0,8.6,1.54,11.54,4.63c2.94,3.09,4.42,7.26,4.42,12.52v26.41h-7.39V303.1
			c0-3.28-0.85-5.83-2.55-7.64c-1.69-1.81-3.96-2.71-6.79-2.71c-3.17,0-5.7,1.06-7.59,3.18c-1.9,2.12-2.84,5.37-2.84,9.72v23.61
			h-7.39V303.1c0-3.28-0.81-5.83-2.42-7.64c-1.61-1.81-3.8-2.71-6.58-2.71c-3.12,0-5.7,1.07-7.77,3.22c-2.07,2.15-3.1,5.38-3.1,9.68
			v23.61h-7.39v-42.46h7.39v5.69c2.89-4.53,7.1-6.79,12.65-6.79c5.72,0,9.88,2.41,12.48,7.22
			C872.92,288.09,877.36,285.69,883.31,285.69"/>
		<path class="st0" d="M932.97,285.69c5.95,0,11.01,2.16,15.2,6.5c4.18,4.33,6.28,9.61,6.28,15.84c0,6.23-2.1,11.5-6.28,15.84
			c-4.19,4.33-9.25,6.49-15.2,6.49c-7.02,0-12.37-2.8-16.04-8.41v24.29h-7.39v-59.44h7.39v7.3
			C920.6,288.49,925.95,285.69,932.97,285.69 M932.04,323.22c4.24,0,7.81-1.46,10.7-4.37c2.89-2.91,4.33-6.52,4.33-10.83
			c0-4.3-1.44-7.91-4.33-10.83c-2.89-2.91-6.45-4.37-10.7-4.37c-4.3,0-7.9,1.46-10.78,4.37c-2.88,2.92-4.33,6.52-4.33,10.83
			c0,4.31,1.44,7.91,4.33,10.83C924.14,321.76,927.73,323.22,932.04,323.22"/>
		<path class="st0" d="M998.42,286.79h7.39v42.46h-7.39v-7.31c-3.68,5.61-9.03,8.41-16.04,8.41c-5.95,0-11.01-2.16-15.2-6.49
			c-4.18-4.33-6.28-9.61-6.28-15.84c0-6.23,2.1-11.51,6.28-15.84c4.19-4.33,9.25-6.5,15.2-6.5c7.02,0,12.36,2.8,16.04,8.41V286.79z
			 M983.31,323.22c4.3,0,7.9-1.46,10.78-4.37c2.88-2.91,4.33-6.52,4.33-10.83c0-4.3-1.44-7.91-4.33-10.83
			c-2.89-2.91-6.49-4.37-10.78-4.37c-4.25,0-7.81,1.46-10.7,4.37c-2.89,2.92-4.33,6.52-4.33,10.83c0,4.31,1.44,7.91,4.33,10.83
			C975.5,321.76,979.07,323.22,983.31,323.22"/>
		<path class="st0" d="M1036.96,330.35c-6.4,0-11.72-2.14-15.96-6.41c-4.25-4.27-6.37-9.58-6.37-15.92c0-6.34,2.12-11.65,6.37-15.92
			c4.24-4.27,9.56-6.41,15.96-6.41c4.19,0,7.95,1.01,11.29,3.01c3.34,2.01,5.83,4.71,7.47,8.11l-6.2,3.57
			c-1.07-2.26-2.73-4.08-4.96-5.43c-2.24-1.36-4.77-2.04-7.6-2.04c-4.25,0-7.8,1.44-10.66,4.33c-2.86,2.88-4.28,6.48-4.28,10.78
			c0,4.25,1.43,7.81,4.28,10.7c2.86,2.89,6.41,4.33,10.66,4.33c2.83,0,5.37-0.66,7.64-1.99c2.26-1.33,3.99-3.13,5.18-5.39l6.28,3.65
			c-1.81,3.34-4.41,6.02-7.81,8.03C1044.86,329.35,1041.09,330.35,1036.96,330.35"/>
		<path class="st0" d="M1086.46,293.93h-11.29v23.01c0,2.09,0.41,3.58,1.23,4.46c0.82,0.88,2.08,1.33,3.78,1.36s3.79-0.01,6.28-0.13
			v6.62c-6.45,0.85-11.18,0.33-14.18-1.57c-3-1.89-4.5-5.48-4.5-10.74v-23.01h-8.4v-7.13h8.4v-9.68l7.39-2.21v11.89h11.29V293.93z"
			/>
		<path class="st0" d="M1151.91,286.79h7.3v40.67c0,6.29-2.12,11.17-6.37,14.65c-4.24,3.48-9.34,5.22-15.28,5.22
			c-4.75,0-8.86-0.89-12.31-2.68c-3.45-1.78-6.06-4.34-7.81-7.68l6.45-3.65c2.32,4.76,6.93,7.13,13.84,7.13
			c4.42,0,7.88-1.16,10.4-3.48c2.52-2.32,3.78-5.49,3.78-9.51v-6.03c-3.73,5.66-9.05,8.49-15.96,8.49c-6.06,0-11.18-2.15-15.36-6.45
			c-4.19-4.3-6.28-9.54-6.28-15.71c0-6.17,2.09-11.39,6.28-15.67c4.19-4.27,9.31-6.41,15.36-6.41c6.96,0,12.28,2.8,15.96,8.41
			V286.79z M1126.02,318.55c2.88,2.89,6.48,4.33,10.78,4.33c4.3,0,7.9-1.45,10.78-4.33c2.88-2.88,4.33-6.48,4.33-10.78
			c0-4.25-1.44-7.81-4.33-10.7c-2.89-2.89-6.48-4.33-10.78-4.33c-4.3,0-7.9,1.45-10.78,4.33c-2.89,2.89-4.33,6.45-4.33,10.7
			C1121.69,312.07,1123.13,315.66,1126.02,318.55"/>
		<path class="st0" d="M1177.8,293.93c2.43-5.27,6.84-7.9,13.24-7.9v7.73c-3.62-0.17-6.74,0.79-9.34,2.89
			c-2.6,2.09-3.91,5.46-3.91,10.1v22.5h-7.39v-42.45h7.39V293.93z"/>
		<path class="st0" d="M1231.8,323.9c-4.36,4.3-9.65,6.45-15.88,6.45c-6.23,0-11.5-2.15-15.83-6.45c-4.33-4.3-6.49-9.6-6.49-15.88
			c0-6.28,2.16-11.58,6.49-15.88c4.33-4.3,9.61-6.45,15.83-6.45c6.23,0,11.52,2.15,15.88,6.45c4.35,4.3,6.54,9.6,6.54,15.88
			C1238.33,314.3,1236.15,319.6,1231.8,323.9 M1215.92,323.13c4.24,0,7.81-1.44,10.7-4.33c2.89-2.89,4.33-6.48,4.33-10.79
			c0-4.3-1.44-7.89-4.33-10.78c-2.89-2.89-6.45-4.33-10.7-4.33c-4.19,0-7.73,1.45-10.61,4.33c-2.89,2.89-4.33,6.48-4.33,10.78
			c0,4.3,1.44,7.9,4.33,10.79C1208.19,321.69,1211.73,323.13,1215.92,323.13"/>
		<path class="st0" d="M1276.36,286.79h7.39v42.46h-7.39v-6.11c-3,4.81-7.58,7.22-13.75,7.22c-4.98,0-8.97-1.57-11.97-4.71
			c-3-3.14-4.5-7.4-4.5-12.78v-26.07h7.39v25.64c0,3.45,0.93,6.13,2.8,8.03c1.87,1.89,4.44,2.84,7.73,2.84
			c3.68,0,6.65-1.14,8.91-3.44c2.26-2.3,3.4-5.82,3.4-10.57V286.79z"/>
		<path class="st0" d="M1318.39,285.69c5.94,0,11.01,2.16,15.2,6.5c4.18,4.33,6.28,9.61,6.28,15.84c0,6.23-2.1,11.5-6.28,15.84
			c-4.19,4.33-9.25,6.49-15.2,6.49c-7.02,0-12.37-2.8-16.05-8.41v24.29h-7.39v-59.44h7.39v7.3
			C1306.02,288.49,1311.37,285.69,1318.39,285.69 M1317.45,323.22c4.24,0,7.81-1.46,10.7-4.37c2.89-2.91,4.33-6.52,4.33-10.83
			c0-4.3-1.44-7.91-4.33-10.83c-2.88-2.91-6.45-4.37-10.7-4.37c-4.3,0-7.9,1.46-10.78,4.37c-2.88,2.92-4.33,6.52-4.33,10.83
			c0,4.31,1.44,7.91,4.33,10.83C1309.55,321.76,1313.15,323.22,1317.45,323.22"/>
	</g>
	<g>
		<path class="st0" d="M102.77,96.13c0,3.72,2.46,6.74,7.39,9.06c4.92,2.32,10.91,4.37,17.97,6.13c7.06,1.77,14.11,4,21.17,6.69
			c7.06,2.7,13.05,7.2,17.97,13.51c4.92,6.32,7.38,14.21,7.38,23.68c0,14.31-5.34,25.31-16.02,33.02
			c-10.68,7.71-24.01,11.56-39.98,11.56c-28.61,0-48.11-11.05-58.51-33.16l31.21-17.55c4.08,12.08,13.19,18.11,27.31,18.11
			c12.82,0,19.23-3.99,19.23-11.98c0-3.71-2.46-6.73-7.38-9.05c-4.93-2.32-10.92-4.41-17.97-6.27c-7.06-1.85-14.12-4.18-21.18-6.97
			c-7.06-2.78-13.05-7.2-17.97-13.23c-4.92-6.03-7.39-13.6-7.39-22.71c0-13.74,5.06-24.56,15.19-32.46
			c10.13-7.89,22.71-11.84,37.75-11.84c11.33,0,21.64,2.56,30.93,7.66c9.28,5.11,16.62,12.4,22.01,21.87l-30.65,16.72
			c-4.46-9.47-11.89-14.21-22.29-14.21c-4.64,0-8.5,1.02-11.56,3.06C104.3,89.82,102.77,92.61,102.77,96.13z"/>
		<path class="st0" d="M289.73,56.57h35.94v139.32h-35.94v-15.6c-8.73,13-22.57,19.5-41.51,19.5c-15.24,0-27.82-5.11-37.76-15.32
			c-9.94-10.21-14.91-24.33-14.91-42.35V56.57h35.94v81.08c0,9.29,2.51,16.4,7.53,21.32c5.01,4.92,11.7,7.38,20.06,7.38
			c9.29,0,16.72-2.88,22.29-8.64c5.58-5.75,8.36-14.39,8.36-25.91V56.57z"/>
		<path class="st0" d="M439.63,52.67c18.76,0,34.78,7.11,48.07,21.32c13.28,14.21,19.92,31.62,19.92,52.24s-6.64,38.03-19.92,52.24
			c-13.29,14.21-29.31,21.31-48.07,21.31c-19.5,0-34.55-6.78-45.14-20.34v72.17h-35.94V56.57h35.94v16.44
			C405.08,59.45,420.13,52.67,439.63,52.67z M405.36,154.51c7.24,7.34,16.44,11.01,27.58,11.01c11.15,0,20.38-3.67,27.72-11.01
			c7.34-7.33,11.01-16.76,11.01-28.28c0-11.51-3.67-20.94-11.01-28.28c-7.34-7.34-16.58-11.01-27.72-11.01
			c-11.15,0-20.34,3.67-27.58,11.01c-7.24,7.34-10.87,16.77-10.87,28.28C394.49,137.75,398.12,147.17,405.36,154.51z"/>
		<path class="st0" d="M563.34,140.99c4.83,17.46,17.92,26.19,39.28,26.19c13.74,0,24.15-4.64,31.21-13.93l28.98,16.72
			c-13.75,19.88-33.99,29.81-60.74,29.81c-23.03,0-41.52-6.97-55.45-20.9c-13.93-13.93-20.89-31.49-20.89-52.66
			c0-20.99,6.87-38.49,20.62-52.52c13.74-14.02,31.39-21.04,52.94-21.04c20.43,0,37.29,7.06,50.57,21.18
			c13.28,14.12,19.92,31.58,19.92,52.38c0,4.65-0.47,9.57-1.39,14.77H563.34z M562.78,113.13h71.05
			c-2.05-9.47-6.27-16.53-12.68-21.18c-6.41-4.64-13.7-6.97-21.87-6.97c-9.66,0-17.65,2.46-23.96,7.38
			C569,97.3,564.83,104.21,562.78,113.13z"/>
		<path class="st0" d="M730.79,80.53c3.34-8.92,8.87-15.6,16.58-20.06c7.71-4.46,16.3-6.69,25.77-6.69V93.9
			c-10.96-1.3-20.76,0.93-29.39,6.69c-8.64,5.76-12.96,15.33-12.96,28.7v66.59h-35.94V56.57h35.94V80.53z"/>
		<path class="st1" d="M855.06,199.78c-21,0-38.5-7.06-52.52-21.18c-14.03-14.11-21.04-31.58-21.04-52.38
			c0-20.8,7.01-38.26,21.04-52.38c14.02-14.11,31.53-21.18,52.52-21.18c13.56,0,25.91,3.25,37.05,9.75
			c11.15,6.5,19.6,15.23,25.36,26.19l-30.92,18.11c-2.79-5.76-7.02-10.31-12.68-13.65c-5.66-3.34-12.03-5.02-19.08-5.02
			c-10.77,0-19.69,3.58-26.75,10.73c-7.06,7.15-10.58,16.3-10.58,27.45c0,10.96,3.52,20.02,10.58,27.17
			c7.06,7.15,15.98,10.73,26.75,10.73c7.25,0,13.7-1.62,19.36-4.88c5.66-3.25,9.89-7.75,12.68-13.51l31.21,17.83
			c-6.13,10.96-14.77,19.74-25.92,26.33C880.97,196.48,868.61,199.78,855.06,199.78z"/>
		<path class="st1" d="M1040.62,56.57h35.94v139.32h-35.94v-16.44c-10.77,13.56-25.91,20.34-45.42,20.34
			c-18.57,0-34.51-7.11-47.79-21.31c-13.28-14.21-19.92-31.63-19.92-52.24s6.64-38.03,19.92-52.24
			c13.28-14.21,29.21-21.32,47.79-21.32c19.51,0,34.64,6.78,45.42,20.34V56.57z M974.31,154.51c7.24,7.34,16.44,11.01,27.58,11.01
			c11.15,0,20.38-3.67,27.73-11.01c7.33-7.33,11-16.76,11-28.28c0-11.51-3.67-20.94-11-28.28c-7.34-7.34-16.58-11.01-27.73-11.01
			c-11.15,0-20.34,3.67-27.58,11.01c-7.24,7.34-10.87,16.77-10.87,28.28C963.44,137.75,967.07,147.17,974.31,154.51z"/>
		<path class="st1" d="M1145.11,80.53c3.35-8.92,8.87-15.6,16.58-20.06c7.7-4.46,16.3-6.69,25.77-6.69V93.9
			c-10.96-1.3-20.75,0.93-29.4,6.69c-8.63,5.76-12.95,15.33-12.95,28.7v66.59h-35.94V56.57h35.94V80.53z"/>
		<path class="st1" d="M1233.43,140.99c4.83,17.46,17.92,26.19,39.28,26.19c13.74,0,24.15-4.64,31.21-13.93l28.98,16.72
			c-13.75,19.88-33.99,29.81-60.74,29.81c-23.03,0-41.52-6.97-55.45-20.9c-13.93-13.93-20.89-31.49-20.89-52.66
			c0-20.99,6.87-38.49,20.62-52.52c13.74-14.02,31.39-21.04,52.94-21.04c20.43,0,37.29,7.06,50.57,21.18
			c13.28,14.12,19.92,31.58,19.92,52.38c0,4.65-0.47,9.57-1.39,14.77H1233.43z M1232.87,113.13h71.05
			c-2.05-9.47-6.27-16.53-12.68-21.18c-6.41-4.64-13.7-6.97-21.87-6.97c-9.66,0-17.65,2.46-23.96,7.38
			C1239.09,97.3,1234.92,104.21,1232.87,113.13z"/>
	</g>
</g>
<rect x="-260" y="-340" class="st2" width="1920" height="1080"/>
</svg>
